 <svg  version="1.0" xmlns="http://www.w3.org/2000/svg"  width="100.000000pt" height="86.000000pt" viewBox="0 0 100.000000 86.000000"  preserveAspectRatio="xMidYMid meet">  <g transform="translate(0.000000,86.000000) scale(0.100000,-0.100000)" fill="#008ecc" stroke="none"> <path d="M398 850 c-16 -5 -28 -6 -28 -3 0 3 -6 1 -12 -4 -7 -6 -24 -13 -38 -16 -14 -4 -38 -17 -53 -31 -26 -23 -27 -25 -9 -31 12 -3 37 3 61 16 78 40 259 48 325 14 16 -8 33 -15 39 -15 6 0 18 -7 27 -15 15 -14 18 -14 30 0 19 23 0 40 -78 69 -54 21 -84 26 -152 25 -47 0 -97 -4 -112 -9z"/> <path d="M140 746 c-6 -19 -10 -75 -9 -126 1 -79 4 -92 21 -101 17 -9 19 -8 15 8 -7 22 -10 90 -8 156 1 31 6 50 16 53 24 9 148 -106 132 -122 -2 -3 -18 7 -35 21 -39 32 -58 33 -37 1 16 -23 15 -25 -7 -28 l-23 -5 24 -10 c20 -8 21 -11 8 -16 -26 -10 -67 -106 -74 -172 l-5 -60 71 0 c42 0 76 -6 83 -13 9 -9 -5 -12 -69 -12 -80 0 -80 0 -75 -25 5 -29 7 -30 62 -10 47 17 90 20 90 6 0 -5 -17 -12 -37 -16 -21 -4 -50 -13 -65 -21 -22 -12 -26 -18 -19 -32 28 -51 134 -107 236 -124 80 -13 171 0 251 36 55 25 129 90 120 105 -3 4 -32 16 -66 26 -33 10 -60 22 -60 27 0 11 17 10 79 -7 60 -15 71 -13 71 15 0 16 -8 18 -70 18 -39 -1 -74 2 -77 6 -16 15 26 26 90 24 l67 -3 0 36 c0 20 -7 55 -15 78 -8 22 -11 41 -7 41 4 0 2 4 -3 8 -6 4 -22 23 -37 43 -24 32 -25 36 -10 47 16 10 16 11 0 11 -22 1 -23 14 -3 31 9 7 14 15 11 17 -6 7 -50 -18 -59 -33 -4 -8 -12 -14 -17 -14 -15 0 -12 28 3 37 8 4 22 20 32 36 9 15 23 27 30 27 7 0 15 7 19 15 10 28 43 17 50 -16 9 -47 7 -134 -4 -163 -12 -33 4 -43 24 -14 19 27 22 152 5 211 -10 38 -11 39 -47 32 -36 -7 -99 -51 -146 -102 -21 -23 -26 -24 -62 -14 -53 15 -171 13 -216 -3 -21 -8 -38 -10 -38 -6 0 16 -87 93 -125 111 -58 27 -72 24 -85 -15z m247 -303 c28 -26 50 -63 37 -63 -4 0 -22 14 -41 30 -35 31 -78 39 -114 20 -19 -11 -25 -4 -11 16 22 33 91 31 129 -3z m328 19 c6 -4 17 -16 25 -26 14 -18 14 -19 -7 -8 -12 7 -34 12 -50 12 -30 0 -93 -34 -93 -50 0 -5 -4 -10 -10 -10 -19 0 -10 20 23 55 25 27 40 35 67 35 19 0 40 -4 45 -8z m-168 -120 c4 -9 -3 -23 -17 -34 -19 -15 -22 -23 -13 -36 16 -27 78 -27 103 -2 12 12 24 19 27 16 10 -10 -40 -78 -80 -107 -61 -44 -87 -39 -157 31 -33 32 -60 64 -60 70 0 5 9 1 21 -11 25 -25 86 -23 103 3 8 13 5 23 -14 43 -25 26 -21 40 15 47 32 6 66 -3 72 -20z"/> <path d="M472 227 c-17 -12 -32 -25 -32 -29 0 -14 61 -27 85 -18 27 10 34 40 10 40 -7 0 -18 7 -22 15 -7 13 -13 11 -41 -8z"/> <path d="M71 579 c-23 -37 -23 -52 1 -57 20 -4 46 64 30 80 -7 7 -17 0 -31 -23z"/> <path d="M885 601 c-10 -17 27 -81 47 -81 24 0 23 24 -4 60 -23 31 -33 36 -43 21z"/> <path d="M40 480 c-22 -17 -25 -27 -27 -95 -2 -69 0 -79 22 -101 13 -13 31 -24 40 -24 13 0 15 16 13 117 -2 66 -7 118 -13 119 -5 2 -21 -5 -35 -16z"/> <path d="M856 383 c3 -85 8 -118 17 -118 9 0 12 30 12 115 0 99 -2 115 -16 118 -15 3 -17 -9 -13 -115z"/> <path d="M105 412 c-7 -79 8 -167 26 -156 5 3 9 57 9 120 0 91 -3 114 -14 114 -10 0 -16 -21 -21 -78z"/> <path d="M917 483 c-10 -9 -8 -196 2 -211 6 -10 13 -11 33 -2 13 7 25 17 26 23 1 7 4 39 8 73 5 46 3 68 -10 92 -15 30 -43 42 -59 25z"/> <path d="M829 188 c-17 -33 -81 -98 -91 -92 -4 3 -8 1 -8 -5 0 -5 -9 -13 -20 -16 -30 -10 -25 -28 6 -21 57 15 163 133 135 151 -6 3 -15 -5 -22 -17z"/> <path d="M600 71 c-35 -10 -41 -57 -8 -63 52 -10 98 20 85 56 -7 17 -33 19 -77 7z"/> </g> </svg> 